#!OML:ASF X:\für Bonn\!DataBase\2005_08_12_Daniel\c3d\Daniel.ASF
:FULLY-SPECIFIED
:DEGREES
209
root 2.69468 17.615 17.0198 -5.51584 11.797 -1.42944
lowerback 9.28341 -0.876741 0.55922
upperback 2.3848 -1.18523 -2.54748
thorax -2.79402 -0.590377 -2.81862
lowerneck 2.98422 -2.40532 -2.39515
upperneck 21.5795 -3.23028 0.502612
head 6.09796 -1.69567 0.427946
rclavicle 2.93207e-014 1.59028e-014
rhumerus -15.3703 10.5233 -66.2915
rradius 111.731
rwrist -18.253
rhand -14.8878 16.1245
rfingers 7.12502
rthumb 11.273 -13.5526
lclavicle 2.93207e-014 1.59028e-014
lhumerus -32.7238 31.1036 71.3184
lradius 21.7749
lwrist -30.1931
lhand -11.4856 -5.80161
lfingers 7.12502
lthumb 14.5527 23.6679
rfemur 9.60429 18.7422 23.0741
rtibia 13.0266
rfoot -24.1495 -25.568
rtoes -11.7591
lfemur -2.01406 -16.8704 -16.9362
ltibia 29.5771
lfoot -22.0973 3.82843
ltoes -12.7638
210
root 2.6894 17.6171 17.0082 -5.48687 11.8679 -1.42805
lowerback 9.47978 -0.96606 0.409534
upperback 2.48063 -1.31358 -2.43578
thorax -2.80431 -0.652473 -2.60098
lowerneck 2.90623 -2.23951 -2.27921
upperneck 21.7087 -2.95785 0.238308
head 6.14228 -1.57242 0.334757
rclavicle 8.44835e-015 -6.36111e-015
rhumerus -17.5714 10.6715 -67.5599
rradius 112.672
rwrist -18.5083
rhand -14.4508 16.0693
rfingers 7.12502
rthumb 11.6944 -13.5843
lclavicle 8.44835e-015 -6.36111e-015
lhumerus -32.5943 30.6858 71.927
lradius 22.1979
lwrist -29.4944
lhand -11.3738 -5.76867
lfingers 7.12502
lthumb 14.6604 23.6931
rfemur 9.49138 18.5949 23.0165
rtibia 13.0636
rfoot -24.0963 -25.487
rtoes -11.6709
lfemur -2.14154 -16.8584 -16.8837
ltibia 29.6002
lfoot -22.0363 3.72537
ltoes -12.7176
211
root 2.68367 17.6182 16.9951 -5.47304 11.9567 -1.42905
lowerback 9.72484 -1.05878 0.258235
upperback 2.56972 -1.44701 -2.30882
thorax -2.84691 -0.717358 -2.36484
lowerneck 2.89689 -2.06256 -2.19369
upperneck 21.7718 -2.66916 -0.0316244
head 6.15517 -1.44417 0.246831
rclavicle -1.72446e-014 -1.11319e-014
rhumerus -19.8392 10.748 -68.8987
rradius 113.483
rwrist -18.6347
rhand -14.0909 16.142
rfingers 7.12502
rthumb 12.0414 -13.4915
lclavicle -1.72446e-014 -1.11319e-014
lhumerus -32.4909 30.2722 72.5523
lradius 22.6348
lwrist -28.7933
lhand -11.3212 -5.75627
lfingers 7.12502
lthumb 14.7111 23.7018
rfemur 9.38348 18.4128 22.9615
rtibia 13.1184
rfoot -24.0679 -25.3846
rtoes -11.6935
lfemur -2.26247 -16.8326 -16.8285
ltibia 29.6255
lfoot -21.9554 3.60569
ltoes -12.723
212
root 2.6775 17.6204 16.982 -5.44309 12.0429 -1.45187
lowerback 9.9501 -1.15075 0.142164
upperback 2.67644 -1.57592 -2.18714
thorax -2.85967 -0.779945 -2.15448
lowerneck 2.81182 -1.88452 -2.09194
upperneck 21.8537 -2.3763 -0.308966
head 6.18753 -1.31339 0.152996
rclavicle -2.23633e-015 0
rhumerus -22.1014 10.7144 -70.3304
rradius 114.143
rwrist -18.6763
rhand -13.8283 16.3517
rfingers 7.12502
rthumb 12.2947 -13.2669
lclavicle -2.23633e-015 0
lhumerus -32.3557 29.8845 73.1809
lradius 23.09
lwrist -28.0805
lhand -11.2595 -5.73725
lfingers 7.12502
lthumb 14.7705 23.7164
rfemur 9.24573 18.2298 22.9202
rtibia 13.1718
rfoot -24.0139 -25.2885
rtoes -11.6154
lfemur -2.41951 -16.7765 -16.7342
ltibia 29.6574
lfoot -21.8788 3.45633
ltoes -12.7272
213
root 2.67075 17.6227 16.9681 -5.38274 12.137 -1.44834
lowerback 10.1669 -1.24127 -0.00249529
upperback 2.77672 -1.70606 -2.06384
thorax -2.87233 -0.843161 -1.92576
lowerneck 2.7225 -1.69592 -2.01609
upperneck 21.9463 -2.06642 -0.591857
head 6.22543 -1.17711 0.0625061
rclavicle -1.03368e-014 1.82882e-014
rhumerus -24.4152 10.6202 -71.8157
rradius 114.71
rwrist -18.6023
rhand -13.661 16.6603
rfingers 7.12502
rthumb 12.456 -12.9485
lclavicle -1.03368e-014 1.82882e-014
lhumerus -32.2106 29.5004 73.8218
lradius 23.5131
lwrist -27.3417
lhand -11.2529 -5.77593
lfingers 7.12502
lthumb 14.7769 23.6773
rfemur 9.07326 18.0295 22.8373
rtibia 13.2281
rfoot -23.9387 -25.1772
rtoes -11.6182
lfemur -2.61004 -16.7588 -16.6635
ltibia 29.6956
lfoot -21.8047 3.3252
ltoes -12.6812
214
root 2.66364 17.6248 16.9529 -5.33204 12.2302 -1.45749
lowerback 10.4065 -1.32868 -0.121328
upperback 2.88845 -1.82989 -1.94603
thorax -2.88502 -0.903355 -1.71729
lowerneck 2.60729 -1.51047 -1.91481
upperneck 22.0355 -1.75565 -0.90228
head 6.26724 -1.04071 -0.041119
rclavicle -3.27995e-014 -1.59028e-014
rhumerus -26.7497 10.4596 -73.3396
rradius 115.165
rwrist -18.4196
rhand -13.6591 17.0692
rfingers 7.12502
rthumb 12.4578 -12.5395
lclavicle -3.27995e-014 -1.59028e-014
lhumerus -32.0669 29.1565 74.4437
lradius 23.9597
lwrist -26.7113
lhand -11.2709 -5.83961
lfingers 7.12502
lthumb 14.7595 23.6149
rfemur 8.89853 17.7929 22.7653
rtibia 13.2916
rfoot -23.8429 -25.0399
rtoes -11.6189
lfemur -2.79705 -16.7191 -16.5786
ltibia 29.7368
lfoot -21.7272 3.18671
ltoes -12.684
215
root 2.65667 17.6276 16.937 -5.27129 12.3316 -1.47928
lowerback 10.6455 -1.42283 -0.207686
upperback 3.00489 -1.9595 -1.83145
thorax -2.89252 -0.966603 -1.52923
lowerneck 2.49242 -1.31516 -1.84033
upperneck 22.1118 -1.43395 -1.19184
head 6.30662 -0.900056 -0.132823
rclavicle -3.27995e-014 -1.59028e-015
rhumerus -29.092 10.2468 -74.8976
rradius 115.485
rwrist -18.0613
rhand -13.7564 17.5767
rfingers 7.12502
rthumb 12.364 -12.0376
lclavicle -3.27995e-014 -1.59028e-015
lhumerus -31.8996 28.7731 75.0922
lradius 24.4237
lwrist -26.0221
lhand -11.2912 -5.89022
lfingers 7.12502
lthumb 14.74 23.5657
rfemur 8.70459 17.5731 22.7033
rtibia 13.3609
rfoot -23.7755 -24.9213
rtoes -11.5937
lfemur -3.01099 -16.6789 -16.4741
ltibia 29.7831
lfoot -21.6405 3.04039
ltoes -12.7274
216
root 2.64835 17.6303 16.9205 -5.19858 12.4446 -1.48885
lowerback 10.8831 -1.51087 -0.289012
upperback 3.12437 -2.08119 -1.73696
thorax -2.89564 -1.02598 -1.36542
lowerneck 2.39367 -1.12169 -1.74227
upperneck 22.1605 -1.11438 -1.48972
head 6.33536 -0.759235 -0.230837
rclavicle -6.95746e-016 1.82882e-014
rhumerus -31.4671 9.971 -76.4798
rradius 115.701
rwrist -17.6493
rhand -13.9484 18.1759
rfingers 7.12502
rthumb 12.1789 -11.4496
lclavicle -6.95746e-016 1.82882e-014
lhumerus -31.7157 28.3666 75.7185
lradius 24.8714
lwrist -25.3288
lhand -11.3319 -5.97368
lfingers 7.12502
lthumb 14.7008 23.4851
rfemur 8.49064 17.3382 22.6254
rtibia 13.4386
rfoot -23.7041 -24.7989
rtoes -11.5126
lfemur -3.25068 -16.6167 -16.3638
ltibia 29.834
lfoot -21.5373 2.83117
ltoes -12.6759
217
root 2.64062 17.6326 16.903 -5.1381 12.5642 -1.50972
lowerback 11.1473 -1.60689 -0.332748
upperback 3.24577 -2.20963 -1.64118
thorax -2.91178 -1.08886 -1.21924
lowerneck 2.29231 -0.91737 -1.69015
upperneck 22.2111 -0.777905 -1.78623
head 6.36697 -0.614143 -0.319727
rclavicle -3.74709e-014 -3.18055e-015
rhumerus -33.8653 9.67193 -78.08
rradius 115.843
rwrist -17.097
rhand -14.2074 18.851
rfingers 7.12502
rthumb 11.9291 -10.7891
lclavicle -3.74709e-014 -3.18055e-015
lhumerus -31.5481 27.9919 76.3292
lradius 25.316
lwrist -24.6884
lhand -11.3739 -6.07386
lfingers 7.12502
lthumb 14.6603 23.3879
rfemur 8.2752 17.0559 22.5475
rtibia 13.5279
rfoot -23.6208 -24.6366
rtoes -11.5474
lfemur -3.4822 -16.5789 -16.2569
ltibia 29.8889
lfoot -21.4445 2.66862
ltoes -12.679
218
root 2.63177 17.6355 16.8852 -5.06943 12.6914 -1.53152
lowerback 11.3826 -1.70591 -0.356555
upperback 3.39621 -2.33925 -1.55751
thorax -2.88227 -1.15234 -1.09734
lowerneck 2.15084 -0.708605 -1.67506
upperneck 22.2529 -0.437635 -2.05595
head 6.40416 -0.468799 -0.393489
rclavicle 5.86415e-015 7.15625e-015
rhumerus -36.2115 9.28642 -79.6982
rradius 115.905
rwrist -16.5371
rhand -14.436 19.5604
rfingers 7.12502
rthumb 11.7087 -10.0924
lclavicle 5.86415e-015 7.15625e-015
lhumerus -31.3397 27.5835 76.9595
lradius 25.7935
lwrist -23.9946
lhand -11.3674 -6.15307
lfingers 7.12502
lthumb 14.6666 23.3082
rfemur 8.05163 16.7909 22.4795
rtibia 13.6184
rfoot -23.5427 -24.5037
rtoes -11.4674
lfemur -3.73343 -16.5272 -16.1374
ltibia 29.9508
lfoot -21.3494 2.48314
ltoes -12.6822
219
root 2.62219 17.6374 16.8658 -5.01967 12.8157 -1.54112
lowerback 11.6654 -1.80558 -0.364698
upperback 3.54029 -2.46906 -1.49129
thorax -2.88593 -1.21591 -1.00021
lowerneck 2.06718 -0.49628 -1.67934
upperneck 22.2681 -0.093044 -2.32665
head 6.4242 -0.322691 -0.463491
rclavicle -4.96962e-015 1.98785e-014
rhumerus -38.538 8.88575 -81.3258
rradius 115.931
rwrist -15.9639
rhand -14.7002 20.2606
rfingers 7.12502
rthumb 11.4539 -9.40652
lclavicle -4.96962e-015 1.98785e-014
lhumerus -31.1774 27.1753 77.5376
lradius 26.2649
lwrist -23.3518
lhand -11.36 -6.22577
lfingers 7.12502
lthumb 14.6737 23.235
rfemur 7.83966 16.509 22.4002
rtibia 13.7183
rfoot -23.4444 -24.3491
rtoes -11.5376
lfemur -3.96881 -16.4875 -16.0354
ltibia 30.0203
lfoot -21.2465 2.2965
ltoes -12.6373
220
root 2.61272 17.6398 16.8464 -4.96785 12.9491 -1.56197
lowerback 11.9273 -1.90494 -0.327258
upperback 3.70527 -2.593 -1.44517
thorax -2.85851 -1.27654 -0.950764
lowerneck 1.98688 -0.278301 -1.67489
upperneck 22.2492 0.253456 -2.57283
head 6.43364 -0.172977 -0.526655
rclavicle 7.7526e-015 -4.77083e-015
rhumerus -40.7684 8.21494 -82.9851
rradius 115.865
rwrist -15.3457
rhand -14.7211 20.9883
rfingers 7.12502
rthumb 11.4338 -8.67995
lclavicle 7.7526e-015 -4.77083e-015
lhumerus -30.954 26.7241 78.1109
lradius 26.7421
lwrist -22.6838
lhand -11.2649 -6.20008
lfingers 7.12502
lthumb 14.7653 23.254
rfemur 7.6149 16.2191 22.331
rtibia 13.8329
rfoot -23.378 -24.1791
rtoes -11.4972
lfemur -4.21343 -16.4682 -15.9284
ltibia 30.0948
lfoot -21.154 2.13619
ltoes -12.5857
